<?xml version="1.0" standalone="no"?>
<!DOCTYPE svg PUBLIC "-//W3C//DTD SVG 20010904//EN"
 "http://www.w3.org/TR/2001/REC-SVG-20010904/DTD/svg10.dtd">
<svg version="1.0" xmlns="http://www.w3.org/2000/svg"
 width="400.000000pt" height="400.000000pt" viewBox="0 0 400.000000 400.000000"
 preserveAspectRatio="xMidYMid meet">
<metadata>
Created by potrace 1.11, written by Peter Selinger 2001-2013
</metadata>
<g transform="translate(0.000000,400.000000) scale(0.100000,-0.100000)"
fill="#000000" stroke="none">
<path d="M263 3922 c-100 -35 -171 -115 -193 -216 -8 -36 -10 -540 -8 -1741
l3 -1690 21 -46 c31 -66 78 -114 142 -146 l57 -28 1720 0 1720 0 57 28 c64 32
111 80 142 146 l21 46 0 1720 0 1720 -21 46 c-31 66 -78 114 -142 146 l-57 28
-1705 2 c-1616 2 -1708 2 -1757 -15z m3494 -31 c65 -29 124 -91 149 -157 18
-47 19 -101 19 -1744 l0 -1695 -24 -52 c-29 -65 -91 -124 -157 -149 -47 -18
-101 -19 -1739 -19 -1638 0 -1692 1 -1739 19 -66 25 -128 84 -157 149 l-24 52
0 1695 c0 1639 1 1697 19 1744 35 90 114 157 209 176 23 4 796 7 1717 6 l1675
-1 52 -24z"/>
<path d="M905 3678 c-3 -13 -102 -504 -220 -1092 l-215 -1069 22 -24 c21 -22
26 -23 204 -23 136 0 183 3 186 13 3 6 45 213 94 459 l89 448 504 2 505 3 27
135 27 135 -21 23 -20 22 -480 0 c-379 0 -478 3 -475 13 3 6 34 157 69 334
l64 323 589 2 590 3 27 133 c26 132 26 133 7 157 l-19 25 -775 0 -774 0 -5
-22z"/>
<path d="M2983 2440 c-514 -54 -944 -420 -1102 -935 -53 -173 -65 -262 -65
-450 1 -150 4 -181 27 -268 86 -323 302 -529 631 -604 92 -21 371 -23 476 -4
221 40 443 150 602 299 26 24 48 49 48 55 0 16 -129 184 -146 191 -9 3 -34 6
-58 6 -34 0 -53 -9 -111 -51 -156 -114 -282 -154 -495 -154 -147 0 -198 10
-293 57 -216 107 -315 368 -263 689 64 385 287 679 588 774 118 37 240 50 348
36 134 -17 182 -38 346 -148 52 -36 101 -42 143 -19 22 12 191 195 191 207 0
15 -86 102 -143 145 -194 145 -437 204 -724 174z m357 -26 c110 -20 198 -55
289 -111 80 -50 201 -157 201 -179 0 -7 -36 -54 -81 -103 -117 -130 -153 -137
-263 -54 -115 86 -207 120 -352 130 -427 28 -777 -258 -895 -730 -30 -119 -37
-330 -15 -429 50 -225 200 -377 414 -418 81 -16 306 -7 387 15 84 23 188 75
269 134 53 40 77 51 105 51 48 0 58 -9 130 -105 l60 -80 -37 -38 c-46 -48
-147 -123 -229 -171 -293 -171 -733 -202 -1028 -71 -427 188 -583 702 -390
1282 151 455 534 796 987 878 104 19 347 19 448 -1z"/>
</g>
</svg>
